<svg xmlns="http://www.w3.org/2000/svg" xmlns:xlink="http://www.w3.org/1999/xlink" width="500" zoomAndPan="magnify" viewBox="0 0 375 374.999991" height="500" preserveAspectRatio="xMidYMid meet" version="1.2"><defs><clipPath id="ec4317aeba"><path d="M 31.074219 36 L 343.824219 36 L 343.824219 348.398438 L 31.074219 348.398438 Z M 31.074219 36 "/></clipPath></defs><g id="11eb4a89bc"><rect x="0" width="375" y="0" height="374.999991" style="fill:#000000;fill-opacity:1;stroke:none;"/><g clip-rule="nonzero" clip-path="url(#ec4317aeba)"><path style=" stroke:none;fill-rule:evenodd;fill:#ffffff;fill-opacity:1;" d="M 343.824219 273.546875 C 343.824219 263.042969 342.777344 252.210938 339.65625 242.148438 C 337.058594 233.800781 333.042969 226.078125 327.066406 219.652344 C 321.296875 213.449219 314.21875 209.066406 306.226562 206.300781 C 297.234375 203.1875 287.585938 202.066406 278.101562 202.066406 C 268.097656 202.066406 257.992188 203.460938 248.667969 207.210938 C 240.394531 210.535156 233.101562 215.449219 227.136719 222.085938 C 221.050781 228.867188 216.8125 236.828125 214.054688 245.492188 C 210.9375 255.300781 209.738281 265.667969 209.738281 275.941406 C 209.738281 286.554688 210.738281 297.566406 213.792969 307.773438 C 216.292969 316.148438 220.238281 324.011719 226.203125 330.464844 C 231.964844 336.703125 239.042969 341.050781 247.035156 343.855469 C 256.132812 347.042969 265.96875 348.167969 275.566406 348.167969 C 285.523438 348.167969 295.597656 346.8125 304.890625 343.097656 C 313.183594 339.777344 320.460938 334.839844 326.421875 328.179688 C 332.539062 321.351562 336.765625 313.269531 339.503906 304.558594 C 342.644531 294.5625 343.824219 283.984375 343.824219 273.546875 Z M 240.980469 153.308594 L 198.453125 170.738281 C 197.914062 170.960938 197.347656 170.8125 196.933594 170.363281 C 196.523438 169.914062 196.375 169.273438 196.550781 168.65625 C 204.839844 138.78125 244.308594 132.617188 265.472656 146.976562 C 257.5 173.773438 228.179688 193.453125 202.371094 182.105469 C 201.84375 181.875 201.488281 181.351562 201.433594 180.703125 C 201.378906 180.054688 201.621094 179.449219 202.117188 179.125 L 241.300781 154.0625 C 241.472656 153.953125 241.515625 153.710938 241.4375 153.519531 C 241.351562 153.328125 241.152344 153.238281 240.980469 153.308594 Z M 86.800781 127.449219 L 149.550781 157.4375 C 150.429688 157.859375 151.375 157.714844 152.09375 157.019531 C 152.820312 156.320312 153.109375 155.277344 152.875 154.226562 C 141.488281 103.503906 87.535156 96.789062 47.765625 109.78125 C 58.878906 155.351562 99.984375 189.214844 143.761719 173.765625 C 144.667969 173.445312 145.289062 172.621094 145.4375 171.550781 C 145.578125 170.484375 145.238281 169.421875 144.421875 168.847656 L 86.210938 128.648438 C 85.941406 128.464844 85.871094 128.050781 86.027344 127.742188 C 86.179688 127.429688 86.511719 127.3125 86.800781 127.449219 Z M 112.941406 268.839844 C 113.574219 268.414062 114.195312 267.964844 114.808594 267.496094 C 117.351562 265.511719 119.570312 263.214844 121.371094 260.527344 C 123.164062 257.84375 124.511719 254.902344 125.390625 251.804688 C 126.324219 248.53125 126.753906 245.160156 126.753906 241.753906 C 126.753906 236.054688 125.816406 230.386719 123.320312 225.226562 C 121.007812 220.441406 117.675781 216.5 113.351562 213.40625 C 108.707031 210.085938 103.355469 207.957031 97.832031 206.617188 C 90.816406 204.917969 83.289062 204.421875 76.089844 204.421875 L 42.117188 204.421875 C 39.25 204.421875 36.613281 205.289062 34.433594 207.171875 C 31.855469 209.394531 31.074219 212.730469 31.074219 216.003906 L 31.074219 334.226562 C 31.074219 337.5 31.855469 340.839844 34.433594 343.066406 C 36.613281 344.945312 39.25 345.804688 42.117188 345.804688 L 78.128906 345.804688 C 83.210938 345.804688 88.332031 345.527344 93.359375 344.773438 C 97.800781 344.109375 102.203125 343.089844 106.429688 341.554688 C 110.429688 340.109375 114.257812 338.25 117.792969 335.875 C 121.234375 333.554688 124.273438 330.765625 126.824219 327.496094 C 129.453125 324.125 131.386719 320.308594 132.75 316.265625 C 134.285156 311.746094 134.90625 306.992188 134.90625 302.222656 C 134.90625 297.617188 134.242188 293.039062 132.613281 288.722656 C 131.152344 284.847656 129.089844 281.261719 126.359375 278.140625 C 123.714844 275.128906 120.613281 272.648438 117.085938 270.746094 C 115.742188 270.023438 114.351562 269.386719 112.941406 268.839844 Z M 63.890625 286.164062 L 77.304688 286.164062 C 80.996094 286.164062 85.203125 286.375 88.765625 287.40625 C 91.160156 288.097656 93.515625 289.144531 95.445312 290.746094 C 97.125 292.148438 98.390625 293.839844 99.238281 295.863281 C 100.210938 298.195312 100.585938 300.707031 100.585938 303.222656 C 100.585938 305.539062 100.234375 307.894531 99.246094 310.011719 C 98.363281 311.910156 97.144531 313.535156 95.527344 314.863281 C 93.8125 316.277344 91.84375 317.257812 89.722656 317.90625 C 86.929688 318.761719 83.796875 318.992188 80.882812 318.992188 L 63.890625 318.992188 Z M 63.890625 230.808594 L 74.871094 230.808594 C 77.839844 230.808594 81.371094 230.964844 84.226562 231.828125 C 86.125 232.40625 87.992188 233.253906 89.519531 234.554688 C 90.855469 235.695312 91.820312 237.136719 92.445312 238.777344 C 93.207031 240.789062 93.503906 242.9375 93.503906 245.082031 C 93.503906 247.15625 93.179688 249.15625 92.515625 251.125 C 91.894531 252.839844 90.964844 254.445312 89.660156 255.808594 C 88.292969 257.238281 86.601562 258.25 84.773438 258.988281 C 82.261719 259.996094 79.015625 260.210938 76.339844 260.210938 L 63.890625 260.210938 Z M 188.734375 265.175781 C 189.027344 267.136719 188.957031 270.019531 188.796875 271.992188 L 188.796875 339.160156 C 188.796875 340.527344 188.335938 341.8125 187.414062 342.949219 C 186.496094 344.007812 185.230469 344.695312 183.832031 345.175781 C 182.335938 345.640625 180.699219 345.914062 179.144531 346.109375 C 176.824219 346.394531 174.40625 346.453125 172.066406 346.453125 C 169.75 346.453125 167.378906 346.382812 165.070312 346.109375 C 163.488281 345.917969 161.820312 345.648438 160.21875 345.152344 C 158.910156 344.695312 157.640625 344.007812 156.660156 342.878906 C 155.796875 341.8125 155.335938 340.527344 155.335938 339.160156 L 155.335938 271.148438 C 154.515625 239.675781 153.941406 171.550781 167.792969 124.316406 C 180.269531 81.777344 206.066406 66.140625 249.445312 55.53125 C 251.507812 55.027344 251.023438 53.445312 249.210938 53.445312 C 226.6875 53.414062 191.542969 60.398438 172.542969 93.84375 C 169.269531 96.929688 168.214844 92.8125 168.820312 87.078125 C 168.644531 30.503906 257.59375 26.726562 296.609375 50.019531 C 298.058594 50.886719 298.082031 52.773438 296.300781 53.71875 C 269.132812 68.058594 234.390625 129.207031 190.183594 113.75 C 188.394531 113.125 187.066406 114.679688 186.226562 117.453125 C 181.089844 134.378906 189.132812 238.273438 188.734375 265.175781 Z M 309.074219 274.9375 C 309.074219 280.914062 308.578125 286.921875 307.414062 292.789062 C 306.421875 297.785156 304.691406 302.613281 301.917969 306.914062 C 299.378906 310.851562 296.019531 313.933594 291.925781 316.21875 C 287.253906 318.816406 281.707031 319.636719 276.421875 319.636719 C 271.222656 319.636719 265.578125 318.96875 260.855469 316.648438 C 256.878906 314.691406 253.730469 311.867188 251.371094 308.113281 C 248.667969 303.824219 247.050781 298.921875 246.117188 293.964844 C 244.921875 287.589844 244.484375 281.023438 244.484375 274.542969 C 244.484375 268.664062 244.988281 262.789062 246.148438 257.019531 C 247.132812 252.09375 248.871094 247.34375 251.628906 243.125 C 254.191406 239.210938 257.5625 236.125 261.644531 233.835938 C 266.304688 231.210938 271.851562 230.382812 277.140625 230.382812 C 282.324219 230.382812 287.890625 231.089844 292.5625 233.464844 C 296.542969 235.484375 299.75 238.363281 302.171875 242.109375 C 304.890625 246.3125 306.511719 251.171875 307.441406 256.0625 C 308.617188 262.261719 309.074219 268.628906 309.074219 274.9375 Z M 309.074219 274.9375 "/></g></g></svg>