<svg xmlns="http://www.w3.org/2000/svg" xmlns:xlink="http://www.w3.org/1999/xlink" width="150" zoomAndPan="magnify" viewBox="0 0 112.5 37.5" height="50" preserveAspectRatio="xMidYMid meet" version="1.2"><defs><clipPath id="0f4d4da229"><path d="M 31.089844 4 L 54.773438 4 L 54.773438 27.894531 L 31.089844 27.894531 Z M 31.089844 4 "/></clipPath><clipPath id="71a16248de"><path d="M 32.171875 3 L 56.59375 3 L 56.59375 28.125 L 32.171875 28.125 Z M 32.171875 3 "/></clipPath></defs><g id="7f3e6cf35b"><g clip-rule="nonzero" clip-path="url(#0f4d4da229)"><path style=" stroke:none;fill-rule:evenodd;fill:#000000;fill-opacity:1;" d="M 54.773438 22.21875 C 54.773438 21.421875 54.691406 20.597656 54.457031 19.835938 C 54.261719 19.199219 53.957031 18.613281 53.503906 18.125 C 53.066406 17.65625 52.53125 17.320312 51.925781 17.113281 C 51.242188 16.875 50.511719 16.789062 49.796875 16.789062 C 49.039062 16.789062 48.273438 16.894531 47.566406 17.179688 C 46.941406 17.433594 46.386719 17.808594 45.9375 18.3125 C 45.476562 18.824219 45.152344 19.429688 44.945312 20.089844 C 44.710938 20.832031 44.617188 21.621094 44.617188 22.398438 C 44.617188 23.207031 44.695312 24.042969 44.925781 24.816406 C 45.113281 25.453125 45.414062 26.050781 45.863281 26.539062 C 46.300781 27.015625 46.835938 27.34375 47.441406 27.558594 C 48.132812 27.800781 48.875 27.882812 49.601562 27.882812 C 50.355469 27.882812 51.121094 27.78125 51.824219 27.5 C 52.453125 27.246094 53.003906 26.871094 53.453125 26.367188 C 53.917969 25.847656 54.238281 25.234375 54.445312 24.574219 C 54.683594 23.8125 54.773438 23.011719 54.773438 22.21875 Z M 46.984375 13.089844 L 43.761719 14.410156 C 43.722656 14.429688 43.679688 14.417969 43.648438 14.382812 C 43.617188 14.347656 43.605469 14.300781 43.621094 14.253906 C 44.246094 11.984375 47.234375 11.515625 48.839844 12.605469 C 48.234375 14.640625 46.015625 16.136719 44.058594 15.273438 C 44.019531 15.257812 43.992188 15.21875 43.988281 15.167969 C 43.984375 15.117188 44.003906 15.074219 44.042969 15.046875 L 47.007812 13.144531 C 47.019531 13.136719 47.023438 13.117188 47.019531 13.105469 C 47.011719 13.089844 46.996094 13.082031 46.984375 13.089844 Z M 35.308594 11.125 L 40.058594 13.402344 C 40.125 13.433594 40.199219 13.421875 40.253906 13.371094 C 40.308594 13.316406 40.328125 13.238281 40.3125 13.15625 C 39.449219 9.304688 35.363281 8.796875 32.351562 9.78125 C 33.195312 13.242188 36.308594 15.816406 39.621094 14.640625 C 39.691406 14.617188 39.738281 14.554688 39.75 14.472656 C 39.757812 14.390625 39.734375 14.3125 39.671875 14.269531 L 35.261719 11.214844 C 35.242188 11.203125 35.238281 11.171875 35.25 11.148438 C 35.261719 11.121094 35.285156 11.113281 35.308594 11.125 Z M 37.289062 21.859375 C 37.335938 21.828125 37.382812 21.792969 37.429688 21.757812 C 37.621094 21.609375 37.789062 21.433594 37.925781 21.230469 C 38.0625 21.027344 38.164062 20.800781 38.230469 20.566406 C 38.300781 20.320312 38.332031 20.0625 38.332031 19.804688 C 38.332031 19.371094 38.261719 18.941406 38.074219 18.550781 C 37.898438 18.1875 37.644531 17.886719 37.320312 17.652344 C 36.96875 17.398438 36.5625 17.238281 36.144531 17.136719 C 35.613281 17.007812 35.042969 16.96875 34.496094 16.96875 L 31.925781 16.96875 C 31.707031 16.96875 31.507812 17.035156 31.34375 17.179688 C 31.148438 17.347656 31.089844 17.601562 31.089844 17.847656 L 31.089844 26.824219 C 31.089844 27.074219 31.148438 27.328125 31.34375 27.496094 C 31.507812 27.640625 31.707031 27.707031 31.925781 27.707031 L 34.652344 27.707031 C 35.035156 27.707031 35.425781 27.683594 35.804688 27.628906 C 36.140625 27.578125 36.476562 27.5 36.792969 27.382812 C 37.097656 27.273438 37.386719 27.132812 37.65625 26.953125 C 37.914062 26.773438 38.144531 26.5625 38.339844 26.316406 C 38.539062 26.058594 38.683594 25.769531 38.789062 25.460938 C 38.902344 25.117188 38.953125 24.757812 38.953125 24.394531 C 38.953125 24.046875 38.902344 23.699219 38.777344 23.371094 C 38.667969 23.078125 38.511719 22.804688 38.304688 22.566406 C 38.105469 22.339844 37.867188 22.148438 37.601562 22.003906 C 37.5 21.949219 37.394531 21.902344 37.289062 21.859375 Z M 33.574219 23.175781 L 34.589844 23.175781 C 34.867188 23.175781 35.1875 23.191406 35.457031 23.269531 C 35.636719 23.324219 35.816406 23.402344 35.964844 23.523438 C 36.089844 23.632812 36.1875 23.757812 36.25 23.914062 C 36.324219 24.089844 36.351562 24.28125 36.351562 24.472656 C 36.351562 24.648438 36.324219 24.828125 36.25 24.988281 C 36.183594 25.132812 36.089844 25.253906 35.96875 25.355469 C 35.839844 25.464844 35.691406 25.539062 35.53125 25.585938 C 35.316406 25.652344 35.082031 25.667969 34.859375 25.667969 L 33.574219 25.667969 Z M 33.574219 18.972656 L 34.40625 18.972656 C 34.628906 18.972656 34.898438 18.984375 35.113281 19.050781 C 35.257812 19.09375 35.398438 19.160156 35.515625 19.257812 C 35.617188 19.34375 35.6875 19.453125 35.734375 19.578125 C 35.792969 19.730469 35.816406 19.894531 35.816406 20.058594 C 35.816406 20.214844 35.792969 20.367188 35.742188 20.515625 C 35.695312 20.644531 35.625 20.769531 35.523438 20.871094 C 35.421875 20.980469 35.292969 21.058594 35.15625 21.113281 C 34.964844 21.1875 34.71875 21.207031 34.515625 21.207031 L 33.574219 21.207031 Z M 43.027344 21.582031 C 43.050781 21.730469 43.042969 21.949219 43.03125 22.101562 L 43.03125 27.199219 C 43.03125 27.304688 42.996094 27.402344 42.925781 27.488281 C 42.859375 27.570312 42.761719 27.621094 42.65625 27.65625 C 42.542969 27.691406 42.417969 27.714844 42.300781 27.726562 C 42.125 27.75 41.941406 27.753906 41.765625 27.753906 C 41.589844 27.753906 41.410156 27.75 41.234375 27.726562 C 41.117188 27.714844 40.988281 27.695312 40.867188 27.65625 C 40.769531 27.621094 40.671875 27.570312 40.597656 27.484375 C 40.535156 27.402344 40.5 27.304688 40.5 27.199219 L 40.5 22.035156 C 40.4375 19.644531 40.394531 14.472656 41.441406 10.886719 C 42.386719 7.65625 44.339844 6.46875 47.625 5.664062 C 47.78125 5.625 47.746094 5.503906 47.605469 5.503906 C 45.902344 5.503906 43.242188 6.03125 41.800781 8.574219 C 41.554688 8.808594 41.472656 8.496094 41.519531 8.058594 C 41.507812 3.761719 48.242188 3.476562 51.195312 5.246094 C 51.304688 5.3125 51.308594 5.453125 51.171875 5.527344 C 49.117188 6.613281 46.484375 11.257812 43.136719 10.085938 C 43 10.035156 42.902344 10.15625 42.835938 10.367188 C 42.449219 11.652344 43.058594 19.539062 43.027344 21.582031 Z M 52.140625 22.324219 C 52.140625 22.777344 52.101562 23.234375 52.015625 23.679688 C 51.941406 24.058594 51.808594 24.425781 51.597656 24.753906 C 51.40625 25.050781 51.152344 25.285156 50.84375 25.457031 C 50.488281 25.65625 50.066406 25.71875 49.667969 25.71875 C 49.273438 25.71875 48.847656 25.667969 48.488281 25.492188 C 48.1875 25.34375 47.949219 25.128906 47.769531 24.84375 C 47.566406 24.515625 47.445312 24.144531 47.375 23.769531 C 47.28125 23.285156 47.25 22.785156 47.25 22.292969 C 47.25 21.847656 47.289062 21.402344 47.375 20.964844 C 47.449219 20.589844 47.582031 20.230469 47.789062 19.910156 C 47.984375 19.609375 48.238281 19.375 48.550781 19.203125 C 48.902344 19.003906 49.320312 18.941406 49.722656 18.941406 C 50.113281 18.941406 50.535156 18.996094 50.890625 19.175781 C 51.191406 19.328125 51.433594 19.546875 51.617188 19.832031 C 51.824219 20.148438 51.945312 20.519531 52.015625 20.890625 C 52.105469 21.363281 52.140625 21.84375 52.140625 22.324219 Z M 52.140625 22.324219 "/></g><g style="fill:#000000;fill-opacity:1;"><g transform="translate(6.093141, 26.740303)"><path style="stroke:none" d="M 16.171875 -12.625 L 16.171875 -12.265625 C 15.941406 -12.210938 15.691406 -12.078125 15.421875 -11.859375 C 15.148438 -11.640625 14.929688 -11.257812 14.765625 -10.71875 L 11.390625 0.09375 C 11.367188 0.09375 11.34375 0.09375 11.3125 0.09375 C 11.289062 0.09375 11.269531 0.09375 11.25 0.09375 C 11.226562 0.09375 11.203125 0.09375 11.171875 0.09375 C 11.148438 0.09375 11.128906 0.09375 11.109375 0.09375 L 7.328125 -11.125 C 7.171875 -11.582031 7 -11.882812 6.8125 -12.03125 C 6.625 -12.175781 6.445312 -12.253906 6.28125 -12.265625 L 6.28125 -12.625 C 6.488281 -12.613281 6.753906 -12.597656 7.078125 -12.578125 C 7.398438 -12.566406 7.707031 -12.5625 8 -12.5625 C 8.46875 -12.5625 8.898438 -12.566406 9.296875 -12.578125 C 9.703125 -12.597656 10.03125 -12.613281 10.28125 -12.625 L 10.28125 -12.265625 C 9.925781 -12.253906 9.644531 -12.21875 9.4375 -12.15625 C 9.226562 -12.09375 9.109375 -11.960938 9.078125 -11.765625 C 9.046875 -11.566406 9.101562 -11.234375 9.25 -10.765625 L 11.90625 -2.546875 L 11.65625 -2.328125 L 14.015625 -9.734375 C 14.222656 -10.390625 14.316406 -10.894531 14.296875 -11.25 C 14.285156 -11.613281 14.15625 -11.867188 13.90625 -12.015625 C 13.65625 -12.171875 13.28125 -12.253906 12.78125 -12.265625 L 12.78125 -12.625 C 13.125 -12.613281 13.472656 -12.597656 13.828125 -12.578125 C 14.191406 -12.566406 14.523438 -12.5625 14.828125 -12.5625 C 15.140625 -12.5625 15.394531 -12.566406 15.59375 -12.578125 C 15.800781 -12.597656 15.992188 -12.613281 16.171875 -12.625 Z M 3.703125 -12.625 L 3.703125 -12.265625 C 3.398438 -12.242188 3.175781 -12.179688 3.03125 -12.078125 C 2.894531 -11.984375 2.832031 -11.832031 2.84375 -11.625 C 2.851562 -11.425781 2.914062 -11.140625 3.03125 -10.765625 L 5.796875 -2.328125 L 5.34375 -1.890625 L 7.84375 -9.859375 L 8.109375 -9.4375 L 5.171875 0.09375 C 5.148438 0.09375 5.125 0.09375 5.09375 0.09375 C 5.070312 0.09375 5.050781 0.09375 5.03125 0.09375 C 5 0.09375 4.972656 0.09375 4.953125 0.09375 C 4.929688 0.09375 4.910156 0.09375 4.890625 0.09375 L 1.109375 -11.125 C 0.953125 -11.582031 0.753906 -11.882812 0.515625 -12.03125 C 0.273438 -12.175781 0.0625 -12.253906 -0.125 -12.265625 L -0.125 -12.625 C 0.113281 -12.613281 0.40625 -12.597656 0.75 -12.578125 C 1.101562 -12.566406 1.445312 -12.5625 1.78125 -12.5625 C 2.175781 -12.5625 2.539062 -12.566406 2.875 -12.578125 C 3.21875 -12.597656 3.492188 -12.613281 3.703125 -12.625 Z M 3.703125 -12.625 "/></g></g><g style="fill:#000000;fill-opacity:1;"><g transform="translate(20.990875, 26.740303)"><path style="stroke:none" d="M 4.84375 -9.4375 C 5.894531 -9.4375 6.710938 -9.117188 7.296875 -8.484375 C 7.890625 -7.847656 8.1875 -6.859375 8.1875 -5.515625 L 1.890625 -5.515625 L 1.875 -5.84375 L 6.46875 -5.84375 C 6.488281 -6.425781 6.441406 -6.960938 6.328125 -7.453125 C 6.210938 -7.953125 6.023438 -8.347656 5.765625 -8.640625 C 5.515625 -8.941406 5.1875 -9.09375 4.78125 -9.09375 C 4.226562 -9.09375 3.738281 -8.816406 3.3125 -8.265625 C 2.894531 -7.722656 2.644531 -6.859375 2.5625 -5.671875 L 2.625 -5.59375 C 2.59375 -5.414062 2.570312 -5.21875 2.5625 -5 C 2.550781 -4.789062 2.546875 -4.582031 2.546875 -4.375 C 2.546875 -3.5625 2.675781 -2.863281 2.9375 -2.28125 C 3.195312 -1.695312 3.535156 -1.253906 3.953125 -0.953125 C 4.378906 -0.648438 4.820312 -0.5 5.28125 -0.5 C 5.632812 -0.5 5.972656 -0.554688 6.296875 -0.671875 C 6.617188 -0.785156 6.914062 -0.972656 7.1875 -1.234375 C 7.457031 -1.492188 7.691406 -1.84375 7.890625 -2.28125 L 8.25 -2.140625 C 8.125 -1.742188 7.910156 -1.363281 7.609375 -1 C 7.316406 -0.632812 6.941406 -0.332031 6.484375 -0.09375 C 6.035156 0.132812 5.515625 0.25 4.921875 0.25 C 4.066406 0.25 3.332031 0.0546875 2.71875 -0.328125 C 2.101562 -0.722656 1.628906 -1.269531 1.296875 -1.96875 C 0.972656 -2.664062 0.8125 -3.46875 0.8125 -4.375 C 0.8125 -5.414062 0.976562 -6.3125 1.3125 -7.0625 C 1.644531 -7.820312 2.113281 -8.40625 2.71875 -8.8125 C 3.332031 -9.226562 4.039062 -9.4375 4.84375 -9.4375 Z M 4.84375 -9.4375 "/></g></g><g style="fill:#000000;fill-opacity:1;"><g transform="translate(30.008642, 26.740303)"><path style="stroke:none" d=""/></g></g><g style="fill:#000000;fill-opacity:1;"><g transform="translate(34.446066, 26.740303)"><path style="stroke:none" d=""/></g></g><g style="fill:#000000;fill-opacity:1;"><g transform="translate(38.88349, 26.740303)"><path style="stroke:none" d=""/></g></g><g style="fill:#000000;fill-opacity:1;"><g transform="translate(43.320914, 26.740303)"><path style="stroke:none" d=""/></g></g><g style="fill:#000000;fill-opacity:1;"><g transform="translate(47.758337, 26.740303)"><path style="stroke:none" d=""/></g></g><g style="fill:#000000;fill-opacity:1;"><g transform="translate(52.195761, 26.740303)"><path style="stroke:none" d=""/></g></g><g style="fill:#000000;fill-opacity:1;"><g transform="translate(56.641813, 26.740303)"><path style="stroke:none" d="M 8.625 -13.984375 L 8.625 -1.9375 C 8.625 -1.40625 8.722656 -1.007812 8.921875 -0.75 C 9.117188 -0.5 9.472656 -0.375 9.984375 -0.375 L 9.984375 0 C 9.617188 -0.03125 9.25 -0.046875 8.875 -0.046875 C 8.53125 -0.046875 8.203125 -0.03125 7.890625 0 C 7.578125 0.03125 7.289062 0.0976562 7.03125 0.203125 L 7.03125 -11.84375 C 7.03125 -12.375 6.929688 -12.765625 6.734375 -13.015625 C 6.546875 -13.273438 6.191406 -13.40625 5.671875 -13.40625 L 5.671875 -13.78125 C 6.046875 -13.75 6.414062 -13.734375 6.78125 -13.734375 C 7.125 -13.734375 7.453125 -13.753906 7.765625 -13.796875 C 8.078125 -13.835938 8.363281 -13.898438 8.625 -13.984375 Z M 4.890625 -9.4375 C 5.410156 -9.4375 5.898438 -9.3125 6.359375 -9.0625 C 6.816406 -8.8125 7.125 -8.378906 7.28125 -7.765625 L 7.046875 -7.59375 C 6.878906 -8.09375 6.617188 -8.453125 6.265625 -8.671875 C 5.910156 -8.898438 5.5 -9.015625 5.03125 -9.015625 C 4.320312 -9.015625 3.734375 -8.648438 3.265625 -7.921875 C 2.796875 -7.203125 2.566406 -6.085938 2.578125 -4.578125 C 2.578125 -3.617188 2.671875 -2.820312 2.859375 -2.1875 C 3.046875 -1.550781 3.316406 -1.070312 3.671875 -0.75 C 4.035156 -0.4375 4.484375 -0.28125 5.015625 -0.28125 C 5.515625 -0.28125 5.960938 -0.492188 6.359375 -0.921875 C 6.765625 -1.347656 7.007812 -1.976562 7.09375 -2.8125 L 7.3125 -2.5625 C 7.21875 -1.664062 6.925781 -0.972656 6.4375 -0.484375 C 5.957031 0.00390625 5.3125 0.25 4.5 0.25 C 3.757812 0.25 3.113281 0.0703125 2.5625 -0.28125 C 2.007812 -0.632812 1.585938 -1.164062 1.296875 -1.875 C 1.003906 -2.59375 0.859375 -3.492188 0.859375 -4.578125 C 0.859375 -5.660156 1.046875 -6.5625 1.421875 -7.28125 C 1.796875 -8 2.285156 -8.535156 2.890625 -8.890625 C 3.503906 -9.253906 4.171875 -9.4375 4.890625 -9.4375 Z M 4.890625 -9.4375 "/></g></g><g style="fill:#000000;fill-opacity:1;"><g transform="translate(66.995806, 26.740303)"><path style="stroke:none" d="M 2.546875 -13.640625 C 2.859375 -13.640625 3.125 -13.523438 3.34375 -13.296875 C 3.570312 -13.078125 3.6875 -12.8125 3.6875 -12.5 C 3.6875 -12.1875 3.570312 -11.914062 3.34375 -11.6875 C 3.125 -11.46875 2.859375 -11.359375 2.546875 -11.359375 C 2.234375 -11.359375 1.960938 -11.46875 1.734375 -11.6875 C 1.515625 -11.914062 1.40625 -12.1875 1.40625 -12.5 C 1.40625 -12.8125 1.515625 -13.078125 1.734375 -13.296875 C 1.960938 -13.523438 2.234375 -13.640625 2.546875 -13.640625 Z M 3.46875 -9.375 L 3.46875 -1.65625 C 3.46875 -1.15625 3.570312 -0.816406 3.78125 -0.640625 C 3.988281 -0.460938 4.335938 -0.375 4.828125 -0.375 L 4.828125 0 C 4.628906 -0.0078125 4.320312 -0.0234375 3.90625 -0.046875 C 3.5 -0.0664062 3.085938 -0.078125 2.671875 -0.078125 C 2.265625 -0.078125 1.851562 -0.0664062 1.4375 -0.046875 C 1.019531 -0.0234375 0.710938 -0.0078125 0.515625 0 L 0.515625 -0.375 C 1.003906 -0.375 1.351562 -0.460938 1.5625 -0.640625 C 1.769531 -0.816406 1.875 -1.15625 1.875 -1.65625 L 1.875 -7.234375 C 1.875 -7.773438 1.773438 -8.171875 1.578125 -8.421875 C 1.390625 -8.679688 1.035156 -8.8125 0.515625 -8.8125 L 0.515625 -9.1875 C 0.898438 -9.144531 1.269531 -9.125 1.625 -9.125 C 1.96875 -9.125 2.296875 -9.144531 2.609375 -9.1875 C 2.921875 -9.226562 3.207031 -9.289062 3.46875 -9.375 Z M 3.46875 -9.375 "/></g></g><g style="fill:#000000;fill-opacity:1;"><g transform="translate(72.21735, 26.740303)"><path style="stroke:none" d="M 3.796875 3.359375 C 3.171875 3.359375 2.578125 3.289062 2.015625 3.15625 C 1.453125 3.019531 1 2.8125 0.65625 2.53125 C 0.320312 2.257812 0.15625 1.910156 0.15625 1.484375 C 0.15625 1.066406 0.320312 0.707031 0.65625 0.40625 C 0.988281 0.113281 1.441406 -0.109375 2.015625 -0.265625 L 2.125 0.015625 C 1.863281 0.0976562 1.65625 0.265625 1.5 0.515625 C 1.34375 0.765625 1.265625 1.046875 1.265625 1.359375 C 1.265625 1.898438 1.515625 2.316406 2.015625 2.609375 C 2.523438 2.898438 3.1875 3.046875 4 3.046875 C 4.53125 3.046875 5.050781 2.976562 5.5625 2.84375 C 6.070312 2.707031 6.492188 2.476562 6.828125 2.15625 C 7.160156 1.832031 7.328125 1.410156 7.328125 0.890625 C 7.328125 0.492188 7.1875 0.171875 6.90625 -0.078125 C 6.625 -0.335938 6.078125 -0.46875 5.265625 -0.46875 L 3.9375 -0.46875 C 3.5625 -0.46875 3.191406 -0.492188 2.828125 -0.546875 C 2.472656 -0.609375 2.179688 -0.734375 1.953125 -0.921875 C 1.734375 -1.117188 1.625 -1.410156 1.625 -1.796875 C 1.625 -2.203125 1.789062 -2.59375 2.125 -2.96875 C 2.457031 -3.34375 3.066406 -3.726562 3.953125 -4.125 L 4.171875 -3.953125 C 3.765625 -3.742188 3.410156 -3.53125 3.109375 -3.3125 C 2.816406 -3.09375 2.671875 -2.832031 2.671875 -2.53125 C 2.671875 -2.15625 2.957031 -1.96875 3.53125 -1.96875 L 5.765625 -1.96875 C 6.253906 -1.96875 6.707031 -1.894531 7.125 -1.75 C 7.550781 -1.601562 7.894531 -1.375 8.15625 -1.0625 C 8.425781 -0.757812 8.5625 -0.359375 8.5625 0.140625 C 8.5625 0.703125 8.378906 1.222656 8.015625 1.703125 C 7.660156 2.191406 7.128906 2.585938 6.421875 2.890625 C 5.710938 3.203125 4.835938 3.359375 3.796875 3.359375 Z M 3.890625 -3.796875 C 3.304688 -3.796875 2.773438 -3.894531 2.296875 -4.09375 C 1.828125 -4.289062 1.453125 -4.597656 1.171875 -5.015625 C 0.898438 -5.429688 0.765625 -5.960938 0.765625 -6.609375 C 0.765625 -7.265625 0.898438 -7.800781 1.171875 -8.21875 C 1.453125 -8.632812 1.828125 -8.941406 2.296875 -9.140625 C 2.773438 -9.335938 3.304688 -9.4375 3.890625 -9.4375 C 4.484375 -9.4375 5.015625 -9.335938 5.484375 -9.140625 C 5.953125 -8.941406 6.320312 -8.632812 6.59375 -8.21875 C 6.863281 -7.800781 7 -7.265625 7 -6.609375 C 7 -5.960938 6.863281 -5.429688 6.59375 -5.015625 C 6.320312 -4.597656 5.953125 -4.289062 5.484375 -4.09375 C 5.015625 -3.894531 4.484375 -3.796875 3.890625 -3.796875 Z M 3.890625 -4.125 C 4.335938 -4.125 4.6875 -4.300781 4.9375 -4.65625 C 5.195312 -5.007812 5.328125 -5.660156 5.328125 -6.609375 C 5.328125 -7.566406 5.195312 -8.222656 4.9375 -8.578125 C 4.6875 -8.929688 4.335938 -9.109375 3.890625 -9.109375 C 3.453125 -9.109375 3.097656 -8.929688 2.828125 -8.578125 C 2.566406 -8.222656 2.4375 -7.566406 2.4375 -6.609375 C 2.4375 -5.660156 2.566406 -5.007812 2.828125 -4.65625 C 3.097656 -4.300781 3.453125 -4.125 3.890625 -4.125 Z M 6.453125 -7.953125 L 6.140625 -8.078125 C 6.296875 -8.484375 6.578125 -8.835938 6.984375 -9.140625 C 7.390625 -9.453125 7.8125 -9.609375 8.25 -9.609375 C 8.5625 -9.609375 8.8125 -9.519531 9 -9.34375 C 9.1875 -9.175781 9.28125 -8.921875 9.28125 -8.578125 C 9.28125 -8.203125 9.179688 -7.941406 8.984375 -7.796875 C 8.796875 -7.648438 8.597656 -7.578125 8.390625 -7.578125 C 8.210938 -7.578125 8.046875 -7.640625 7.890625 -7.765625 C 7.742188 -7.890625 7.65625 -8.085938 7.625 -8.359375 C 7.601562 -8.628906 7.6875 -8.976562 7.875 -9.40625 L 8.109375 -9.359375 C 7.609375 -9.171875 7.25 -8.972656 7.03125 -8.765625 C 6.820312 -8.554688 6.628906 -8.285156 6.453125 -7.953125 Z M 6.453125 -7.953125 "/></g></g><g style="fill:#000000;fill-opacity:1;"><g transform="translate(81.626832, 26.740303)"><path style="stroke:none" d="M 2.546875 -13.640625 C 2.859375 -13.640625 3.125 -13.523438 3.34375 -13.296875 C 3.570312 -13.078125 3.6875 -12.8125 3.6875 -12.5 C 3.6875 -12.1875 3.570312 -11.914062 3.34375 -11.6875 C 3.125 -11.46875 2.859375 -11.359375 2.546875 -11.359375 C 2.234375 -11.359375 1.960938 -11.46875 1.734375 -11.6875 C 1.515625 -11.914062 1.40625 -12.1875 1.40625 -12.5 C 1.40625 -12.8125 1.515625 -13.078125 1.734375 -13.296875 C 1.960938 -13.523438 2.234375 -13.640625 2.546875 -13.640625 Z M 3.46875 -9.375 L 3.46875 -1.65625 C 3.46875 -1.15625 3.570312 -0.816406 3.78125 -0.640625 C 3.988281 -0.460938 4.335938 -0.375 4.828125 -0.375 L 4.828125 0 C 4.628906 -0.0078125 4.320312 -0.0234375 3.90625 -0.046875 C 3.5 -0.0664062 3.085938 -0.078125 2.671875 -0.078125 C 2.265625 -0.078125 1.851562 -0.0664062 1.4375 -0.046875 C 1.019531 -0.0234375 0.710938 -0.0078125 0.515625 0 L 0.515625 -0.375 C 1.003906 -0.375 1.351562 -0.460938 1.5625 -0.640625 C 1.769531 -0.816406 1.875 -1.15625 1.875 -1.65625 L 1.875 -7.234375 C 1.875 -7.773438 1.773438 -8.171875 1.578125 -8.421875 C 1.390625 -8.679688 1.035156 -8.8125 0.515625 -8.8125 L 0.515625 -9.1875 C 0.898438 -9.144531 1.269531 -9.125 1.625 -9.125 C 1.96875 -9.125 2.296875 -9.144531 2.609375 -9.1875 C 2.921875 -9.226562 3.207031 -9.289062 3.46875 -9.375 Z M 3.46875 -9.375 "/></g></g><g style="fill:#000000;fill-opacity:1;"><g transform="translate(86.848376, 26.740303)"><path style="stroke:none" d="M 3.390625 -12.140625 L 3.390625 -9.15625 L 6.03125 -9.15625 L 6.03125 -8.8125 L 3.390625 -8.8125 L 3.390625 -1.90625 C 3.390625 -1.34375 3.488281 -0.945312 3.6875 -0.71875 C 3.894531 -0.5 4.175781 -0.390625 4.53125 -0.390625 C 4.882812 -0.390625 5.191406 -0.535156 5.453125 -0.828125 C 5.710938 -1.117188 5.941406 -1.609375 6.140625 -2.296875 L 6.484375 -2.203125 C 6.367188 -1.515625 6.132812 -0.929688 5.78125 -0.453125 C 5.4375 0.015625 4.898438 0.25 4.171875 0.25 C 3.765625 0.25 3.429688 0.195312 3.171875 0.09375 C 2.910156 0 2.679688 -0.144531 2.484375 -0.34375 C 2.210938 -0.613281 2.023438 -0.9375 1.921875 -1.3125 C 1.828125 -1.695312 1.78125 -2.203125 1.78125 -2.828125 L 1.78125 -8.8125 L 0.078125 -8.8125 L 0.078125 -9.15625 L 1.78125 -9.15625 L 1.78125 -11.890625 C 2.082031 -11.898438 2.367188 -11.921875 2.640625 -11.953125 C 2.910156 -11.992188 3.160156 -12.054688 3.390625 -12.140625 Z M 3.390625 -12.140625 "/></g></g><g style="fill:#000000;fill-opacity:1;"><g transform="translate(93.156999, 26.740303)"><path style="stroke:none" d="M 3.046875 0.125 C 2.554688 0.125 2.132812 0.0351562 1.78125 -0.140625 C 1.425781 -0.328125 1.15625 -0.585938 0.96875 -0.921875 C 0.78125 -1.253906 0.6875 -1.640625 0.6875 -2.078125 C 0.6875 -2.609375 0.804688 -3.039062 1.046875 -3.375 C 1.296875 -3.707031 1.609375 -3.972656 1.984375 -4.171875 C 2.367188 -4.367188 2.769531 -4.535156 3.1875 -4.671875 C 3.613281 -4.816406 4.015625 -4.953125 4.390625 -5.078125 C 4.773438 -5.203125 5.085938 -5.347656 5.328125 -5.515625 C 5.578125 -5.679688 5.703125 -5.898438 5.703125 -6.171875 L 5.703125 -7.28125 C 5.703125 -7.769531 5.628906 -8.144531 5.484375 -8.40625 C 5.335938 -8.675781 5.140625 -8.851562 4.890625 -8.9375 C 4.640625 -9.03125 4.359375 -9.078125 4.046875 -9.078125 C 3.742188 -9.078125 3.421875 -9.035156 3.078125 -8.953125 C 2.742188 -8.867188 2.476562 -8.695312 2.28125 -8.4375 C 2.507812 -8.382812 2.707031 -8.265625 2.875 -8.078125 C 3.039062 -7.890625 3.125 -7.644531 3.125 -7.34375 C 3.125 -7.050781 3.023438 -6.816406 2.828125 -6.640625 C 2.640625 -6.460938 2.398438 -6.375 2.109375 -6.375 C 1.765625 -6.375 1.507812 -6.484375 1.34375 -6.703125 C 1.1875 -6.929688 1.109375 -7.179688 1.109375 -7.453125 C 1.109375 -7.765625 1.179688 -8.015625 1.328125 -8.203125 C 1.484375 -8.390625 1.679688 -8.566406 1.921875 -8.734375 C 2.191406 -8.921875 2.546875 -9.082031 2.984375 -9.21875 C 3.421875 -9.363281 3.910156 -9.4375 4.453125 -9.4375 C 4.941406 -9.4375 5.359375 -9.378906 5.703125 -9.265625 C 6.046875 -9.148438 6.332031 -8.984375 6.5625 -8.765625 C 6.875 -8.484375 7.078125 -8.132812 7.171875 -7.71875 C 7.265625 -7.3125 7.3125 -6.820312 7.3125 -6.25 L 7.3125 -1.296875 C 7.3125 -1.003906 7.351562 -0.789062 7.4375 -0.65625 C 7.53125 -0.53125 7.671875 -0.46875 7.859375 -0.46875 C 7.992188 -0.46875 8.117188 -0.492188 8.234375 -0.546875 C 8.359375 -0.609375 8.503906 -0.707031 8.671875 -0.84375 L 8.859375 -0.53125 C 8.609375 -0.34375 8.367188 -0.1875 8.140625 -0.0625 C 7.921875 0.0625 7.617188 0.125 7.234375 0.125 C 6.890625 0.125 6.601562 0.0664062 6.375 -0.046875 C 6.15625 -0.171875 5.988281 -0.347656 5.875 -0.578125 C 5.757812 -0.804688 5.703125 -1.101562 5.703125 -1.46875 C 5.378906 -0.925781 4.992188 -0.523438 4.546875 -0.265625 C 4.109375 -0.00390625 3.609375 0.125 3.046875 0.125 Z M 3.6875 -0.59375 C 4.082031 -0.59375 4.445312 -0.703125 4.78125 -0.921875 C 5.125 -1.148438 5.429688 -1.488281 5.703125 -1.9375 L 5.703125 -5.4375 C 5.554688 -5.238281 5.347656 -5.066406 5.078125 -4.921875 C 4.804688 -4.785156 4.507812 -4.648438 4.1875 -4.515625 C 3.863281 -4.378906 3.554688 -4.21875 3.265625 -4.03125 C 2.972656 -3.851562 2.734375 -3.613281 2.546875 -3.3125 C 2.359375 -3.019531 2.265625 -2.632812 2.265625 -2.15625 C 2.265625 -1.675781 2.390625 -1.296875 2.640625 -1.015625 C 2.898438 -0.734375 3.25 -0.59375 3.6875 -0.59375 Z M 3.6875 -0.59375 "/></g></g><g style="fill:#000000;fill-opacity:1;"><g transform="translate(102.031846, 26.740303)"><path style="stroke:none" d="M 3.359375 -13.984375 L 3.359375 -1.65625 C 3.359375 -1.15625 3.457031 -0.816406 3.65625 -0.640625 C 3.863281 -0.460938 4.210938 -0.375 4.703125 -0.375 L 4.703125 0 C 4.503906 -0.0078125 4.195312 -0.0234375 3.78125 -0.046875 C 3.375 -0.0664062 2.960938 -0.078125 2.546875 -0.078125 C 2.140625 -0.078125 1.726562 -0.0664062 1.3125 -0.046875 C 0.894531 -0.0234375 0.585938 -0.0078125 0.390625 0 L 0.390625 -0.375 C 0.878906 -0.375 1.226562 -0.460938 1.4375 -0.640625 C 1.644531 -0.816406 1.75 -1.15625 1.75 -1.65625 L 1.75 -11.84375 C 1.75 -12.375 1.648438 -12.765625 1.453125 -13.015625 C 1.265625 -13.273438 0.910156 -13.40625 0.390625 -13.40625 L 0.390625 -13.78125 C 0.773438 -13.75 1.144531 -13.734375 1.5 -13.734375 C 1.84375 -13.734375 2.171875 -13.753906 2.484375 -13.796875 C 2.796875 -13.835938 3.085938 -13.898438 3.359375 -13.984375 Z M 3.359375 -13.984375 "/></g></g><g clip-rule="nonzero" clip-path="url(#71a16248de)"><path style=" stroke:none;fill-rule:evenodd;fill:#ffffff;fill-opacity:1;" d="M 56.59375 22.242188 C 56.59375 21.421875 56.515625 20.574219 56.269531 19.789062 C 56.066406 19.136719 55.753906 18.535156 55.285156 18.03125 C 54.835938 17.546875 54.285156 17.207031 53.660156 16.988281 C 52.957031 16.746094 52.203125 16.660156 51.464844 16.660156 C 50.683594 16.660156 49.894531 16.769531 49.164062 17.0625 C 48.519531 17.320312 47.949219 17.703125 47.484375 18.222656 C 47.007812 18.753906 46.675781 19.375 46.460938 20.050781 C 46.21875 20.816406 46.125 21.625 46.125 22.429688 C 46.125 23.257812 46.203125 24.117188 46.441406 24.914062 C 46.636719 25.570312 46.945312 26.183594 47.410156 26.6875 C 47.859375 27.171875 48.414062 27.511719 49.035156 27.734375 C 49.746094 27.980469 50.515625 28.070312 51.265625 28.070312 C 52.042969 28.070312 52.828125 27.964844 53.554688 27.671875 C 54.203125 27.414062 54.769531 27.027344 55.238281 26.507812 C 55.714844 25.976562 56.042969 25.34375 56.257812 24.664062 C 56.503906 23.882812 56.59375 23.058594 56.59375 22.242188 Z M 48.5625 12.851562 L 45.242188 14.210938 C 45.199219 14.230469 45.15625 14.21875 45.125 14.183594 C 45.09375 14.148438 45.082031 14.097656 45.09375 14.050781 C 45.742188 11.71875 48.824219 11.234375 50.476562 12.355469 C 49.855469 14.449219 47.5625 15.988281 45.550781 15.101562 C 45.507812 15.082031 45.480469 15.042969 45.476562 14.992188 C 45.472656 14.941406 45.488281 14.894531 45.527344 14.867188 L 48.589844 12.910156 C 48.601562 12.902344 48.605469 12.882812 48.601562 12.867188 C 48.59375 12.851562 48.578125 12.847656 48.5625 12.851562 Z M 36.523438 10.832031 L 41.425781 13.175781 C 41.492188 13.207031 41.566406 13.195312 41.621094 13.140625 C 41.679688 13.085938 41.703125 13.003906 41.683594 12.921875 C 40.792969 8.960938 36.582031 8.4375 33.476562 9.453125 C 34.34375 13.011719 37.554688 15.65625 40.972656 14.449219 C 41.042969 14.425781 41.089844 14.359375 41.101562 14.277344 C 41.113281 14.191406 41.085938 14.109375 41.023438 14.066406 L 36.476562 10.925781 C 36.457031 10.910156 36.449219 10.878906 36.464844 10.855469 C 36.476562 10.832031 36.5 10.820312 36.523438 10.832031 Z M 38.566406 21.875 C 38.613281 21.839844 38.664062 21.804688 38.710938 21.769531 C 38.910156 21.613281 39.082031 21.433594 39.222656 21.226562 C 39.363281 21.015625 39.46875 20.785156 39.535156 20.542969 C 39.609375 20.289062 39.644531 20.023438 39.644531 19.757812 C 39.644531 19.3125 39.570312 18.871094 39.375 18.46875 C 39.195312 18.09375 38.933594 17.785156 38.597656 17.542969 C 38.234375 17.285156 37.816406 17.121094 37.382812 17.015625 C 36.835938 16.882812 36.25 16.84375 35.6875 16.84375 L 33.035156 16.84375 C 32.808594 16.84375 32.605469 16.910156 32.433594 17.058594 C 32.230469 17.230469 32.171875 17.492188 32.171875 17.746094 L 32.171875 26.980469 C 32.171875 27.234375 32.230469 27.496094 32.433594 27.671875 C 32.605469 27.816406 32.808594 27.886719 33.035156 27.886719 L 35.847656 27.886719 C 36.242188 27.886719 36.644531 27.863281 37.035156 27.804688 C 37.382812 27.753906 37.726562 27.671875 38.054688 27.554688 C 38.367188 27.441406 38.667969 27.292969 38.945312 27.109375 C 39.210938 26.929688 39.449219 26.710938 39.648438 26.453125 C 39.855469 26.191406 40.003906 25.894531 40.113281 25.578125 C 40.230469 25.226562 40.28125 24.851562 40.28125 24.480469 C 40.28125 24.121094 40.226562 23.765625 40.101562 23.425781 C 39.988281 23.125 39.824219 22.84375 39.613281 22.601562 C 39.40625 22.367188 39.164062 22.171875 38.886719 22.023438 C 38.785156 21.964844 38.675781 21.917969 38.566406 21.875 Z M 34.734375 23.226562 L 35.78125 23.226562 C 36.070312 23.226562 36.398438 23.242188 36.675781 23.324219 C 36.863281 23.378906 37.046875 23.460938 37.199219 23.585938 C 37.328125 23.695312 37.429688 23.828125 37.496094 23.984375 C 37.570312 24.167969 37.601562 24.363281 37.601562 24.558594 C 37.601562 24.738281 37.574219 24.925781 37.496094 25.089844 C 37.425781 25.238281 37.332031 25.363281 37.203125 25.46875 C 37.070312 25.578125 36.917969 25.65625 36.75 25.707031 C 36.535156 25.773438 36.289062 25.789062 36.0625 25.789062 L 34.734375 25.789062 Z M 34.734375 18.902344 L 35.59375 18.902344 C 35.824219 18.902344 36.097656 18.917969 36.320312 18.984375 C 36.46875 19.027344 36.617188 19.09375 36.734375 19.195312 C 36.839844 19.285156 36.914062 19.398438 36.964844 19.527344 C 37.023438 19.683594 37.046875 19.851562 37.046875 20.019531 C 37.046875 20.179688 37.019531 20.335938 36.96875 20.492188 C 36.921875 20.625 36.847656 20.75 36.746094 20.855469 C 36.640625 20.96875 36.507812 21.046875 36.363281 21.105469 C 36.167969 21.183594 35.914062 21.199219 35.707031 21.199219 L 34.734375 21.199219 Z M 44.484375 21.585938 C 44.507812 21.742188 44.5 21.964844 44.488281 22.121094 L 44.488281 27.367188 C 44.488281 27.472656 44.453125 27.574219 44.378906 27.660156 C 44.308594 27.746094 44.210938 27.796875 44.101562 27.835938 C 43.984375 27.871094 43.855469 27.894531 43.734375 27.910156 C 43.554688 27.929688 43.363281 27.933594 43.183594 27.933594 C 43 27.933594 42.816406 27.929688 42.636719 27.910156 C 42.511719 27.894531 42.382812 27.871094 42.257812 27.832031 C 42.15625 27.796875 42.054688 27.746094 41.980469 27.65625 C 41.910156 27.574219 41.875 27.472656 41.875 27.367188 L 41.875 22.054688 C 41.8125 19.597656 41.765625 14.277344 42.847656 10.585938 C 43.824219 7.265625 45.835938 6.042969 49.226562 5.214844 C 49.386719 5.175781 49.347656 5.050781 49.207031 5.050781 C 47.449219 5.050781 44.703125 5.59375 43.21875 8.207031 C 42.964844 8.449219 42.882812 8.128906 42.929688 7.679688 C 42.914062 3.261719 49.863281 2.964844 52.910156 4.785156 C 53.023438 4.851562 53.023438 5 52.882812 5.074219 C 50.761719 6.195312 48.050781 10.96875 44.597656 9.761719 C 44.457031 9.714844 44.355469 9.835938 44.289062 10.050781 C 43.886719 11.375 44.515625 19.488281 44.484375 21.585938 Z M 53.882812 22.351562 C 53.882812 22.816406 53.84375 23.285156 53.753906 23.746094 C 53.675781 24.132812 53.539062 24.511719 53.324219 24.847656 C 53.125 25.15625 52.863281 25.394531 52.542969 25.574219 C 52.179688 25.777344 51.746094 25.839844 51.332031 25.839844 C 50.925781 25.839844 50.484375 25.789062 50.117188 25.609375 C 49.804688 25.453125 49.558594 25.234375 49.375 24.941406 C 49.164062 24.605469 49.039062 24.222656 48.964844 23.835938 C 48.871094 23.339844 48.835938 22.824219 48.835938 22.320312 C 48.835938 21.859375 48.878906 21.402344 48.96875 20.949219 C 49.042969 20.566406 49.179688 20.195312 49.394531 19.867188 C 49.597656 19.558594 49.859375 19.320312 50.175781 19.140625 C 50.542969 18.9375 50.976562 18.871094 51.386719 18.871094 C 51.792969 18.871094 52.226562 18.925781 52.59375 19.113281 C 52.902344 19.269531 53.152344 19.492188 53.34375 19.785156 C 53.554688 20.113281 53.683594 20.492188 53.753906 20.875 C 53.847656 21.359375 53.882812 21.859375 53.882812 22.351562 Z M 53.882812 22.351562 "/></g></g></svg>